<svg xmlns="http://www.w3.org/2000/svg" xmlns:xlink="http://www.w3.org/1999/xlink" width="1366" zoomAndPan="magnify" viewBox="0 0 1024.5 576" height="768" preserveAspectRatio="xMidYMid meet" version="1.2"><defs/><g id="f3b6c08937"><g style="fill:#000000;fill-opacity:1;"><g transform="translate(169.244587, 308.975927)"><path style="stroke:none" d="M 151.703125 -115.28125 L 151.703125 -116.765625 L 165.84375 -116.765625 L 165.84375 -115.28125 C 164.625 -115.28125 162.875 -113.921875 160.59375 -111.203125 C 158.320312 -108.484375 155.914062 -103.351562 153.375 -95.8125 L 123.765625 -9.15625 L 126.75 0 L 114.28125 0 L 84.171875 -87.828125 L 57.21875 -9.15625 L 60.375 0 L 47.734375 0 L 16.140625 -92.484375 C 14.023438 -98.804688 11.941406 -104.1875 9.890625 -108.625 C 7.835938 -113.0625 6.203125 -115.28125 4.984375 -115.28125 L 4.984375 -116.765625 L 24.453125 -116.765625 L 24.453125 -115.28125 C 23.898438 -115.28125 23.734375 -113.695312 23.953125 -110.53125 C 24.171875 -107.375 25.003906 -103.519531 26.453125 -98.96875 L 56.390625 -11.484375 L 83.34375 -90.15625 L 82.5 -92.484375 C 80.394531 -98.804688 78.34375 -104.1875 76.34375 -108.625 C 74.351562 -113.0625 72.75 -115.28125 71.53125 -115.28125 L 71.53125 -116.765625 L 90.984375 -116.765625 L 90.984375 -115.28125 C 90.429688 -115.28125 90.265625 -113.695312 90.484375 -110.53125 C 90.710938 -107.375 91.546875 -103.519531 92.984375 -98.96875 L 122.921875 -11.484375 L 151.875 -96.3125 C 156.195312 -108.957031 156.140625 -115.28125 151.703125 -115.28125 Z M 151.703125 -115.28125 "/></g></g><g style="fill:#000000;fill-opacity:1;"><g transform="translate(319.279529, 308.975927)"><path style="stroke:none" d="M 5.65625 -29.4375 C 3.769531 -36.644531 3.796875 -43.6875 5.734375 -50.5625 C 7.679688 -57.4375 11.148438 -63.453125 16.140625 -68.609375 C 21.128906 -73.773438 27.226562 -77.296875 34.4375 -79.171875 C 42.082031 -81.285156 49.285156 -81.34375 56.046875 -79.34375 C 62.816406 -77.351562 68.613281 -74.054688 73.4375 -69.453125 C 78.257812 -64.847656 81.5625 -59.609375 83.34375 -53.734375 C 79.34375 -53.734375 75.039062 -53.566406 70.4375 -53.234375 C 65.84375 -52.898438 61.660156 -52.289062 57.890625 -51.40625 C 62.097656 -51.507812 65.78125 -50.5625 68.9375 -48.5625 C 72.101562 -46.570312 74.628906 -43.910156 76.515625 -40.578125 C 78.398438 -37.253906 79.453125 -33.65625 79.671875 -29.78125 C 80.117188 -23.789062 78.898438 -18.601562 76.015625 -14.21875 C 73.128906 -9.84375 69.21875 -6.40625 64.28125 -3.90625 C 59.351562 -1.414062 53.945312 0.0195312 48.0625 0.40625 C 42.1875 0.800781 36.363281 0.00390625 30.59375 -1.984375 C 24.832031 -3.984375 19.734375 -7.226562 15.296875 -11.71875 C 10.867188 -16.21875 7.65625 -22.125 5.65625 -29.4375 Z M 15.46875 -41.421875 C 15.800781 -38.316406 16.300781 -35.320312 16.96875 -32.4375 C 19.1875 -24.445312 22.398438 -18.175781 26.609375 -13.625 C 30.828125 -9.082031 35.484375 -6.007812 40.578125 -4.40625 C 45.679688 -2.800781 50.753906 -2.441406 55.796875 -3.328125 C 60.847656 -4.210938 65.3125 -6.097656 69.1875 -8.984375 C 73.070312 -11.867188 75.847656 -15.554688 77.515625 -20.046875 C 79.179688 -24.535156 79.179688 -29.550781 77.515625 -35.09375 C 76.296875 -39.195312 74.132812 -42.632812 71.03125 -45.40625 C 67.925781 -48.1875 64.097656 -49.769531 59.546875 -50.15625 C 55.003906 -50.539062 49.957031 -49.125 44.40625 -45.90625 C 40.414062 -43.582031 36.507812 -41.945312 32.6875 -41 C 28.863281 -40.0625 25.34375 -39.703125 22.125 -39.921875 C 21.007812 -40.035156 19.867188 -40.203125 18.703125 -40.421875 C 17.546875 -40.640625 16.46875 -40.972656 15.46875 -41.421875 Z M 70.53125 -54.5625 C 68.425781 -59.332031 65.597656 -63.765625 62.046875 -67.859375 C 58.492188 -71.960938 54.414062 -75.039062 49.8125 -77.09375 C 45.21875 -79.144531 40.203125 -79.453125 34.765625 -78.015625 C 29.773438 -76.679688 25.8125 -74.15625 22.875 -70.4375 C 19.9375 -66.726562 17.910156 -62.40625 16.796875 -57.46875 C 15.691406 -52.53125 15.25 -47.625 15.46875 -42.75 C 17.351562 -41.863281 19.570312 -41.3125 22.125 -41.09375 C 25.226562 -40.976562 28.632812 -41.363281 32.34375 -42.25 C 36.0625 -43.132812 39.863281 -44.6875 43.75 -46.90625 C 48.289062 -49.570312 52.945312 -51.457031 57.71875 -52.5625 C 62.488281 -53.675781 66.757812 -54.34375 70.53125 -54.5625 Z M 70.53125 -54.5625 "/></g></g><g style="fill:#000000;fill-opacity:1;"><g transform="translate(404.277533, 308.975927)"><path style="stroke:none" d="M 23.625 -1.5 L 23.625 0 L 4.328125 0 L 4.328125 -1.5 C 4.878906 -1.5 5.65625 -2.273438 6.65625 -3.828125 C 7.65625 -5.378906 8.15625 -8.875 8.15625 -14.3125 L 8.15625 -105.796875 C 7.707031 -108.679688 7.125 -110.566406 6.40625 -111.453125 C 5.6875 -112.335938 5.101562 -112.78125 4.65625 -112.78125 L 4.15625 -114.28125 L 19.796875 -120.09375 L 19.796875 -14.3125 C 19.796875 -8.875 20.320312 -5.378906 21.375 -3.828125 C 22.425781 -2.273438 23.175781 -1.5 23.625 -1.5 Z M 23.625 -1.5 "/></g></g><g style="fill:#000000;fill-opacity:1;"><g transform="translate(432.055792, 308.975927)"><path style="stroke:none" d="M 75.1875 -56.5625 C 72.96875 -61.769531 69.78125 -66.34375 65.625 -70.28125 C 61.46875 -74.21875 56.753906 -76.960938 51.484375 -78.515625 C 46.210938 -80.066406 40.640625 -79.898438 34.765625 -78.015625 C 30.109375 -76.796875 26.335938 -74.519531 23.453125 -71.1875 C 20.566406 -67.863281 18.484375 -63.957031 17.203125 -59.46875 C 15.929688 -54.976562 15.320312 -50.375 15.375 -45.65625 C 15.4375 -40.945312 15.96875 -36.539062 16.96875 -32.4375 L 17.46875 -30.9375 C 19.789062 -22.957031 23.195312 -16.773438 27.6875 -12.390625 C 32.1875 -8.015625 37.097656 -5.160156 42.421875 -3.828125 C 47.742188 -2.492188 52.925781 -2.4375 57.96875 -3.65625 C 63.019531 -4.875 67.375 -7.144531 71.03125 -10.46875 C 74.6875 -13.800781 77.070312 -17.851562 78.1875 -22.625 L 79.34375 -22.625 C 78.34375 -17.632812 76.125 -13.390625 72.6875 -9.890625 C 69.25 -6.398438 65.0625 -3.765625 60.125 -1.984375 C 55.195312 -0.210938 49.957031 0.613281 44.40625 0.5 C 38.863281 0.382812 33.484375 -0.722656 28.265625 -2.828125 C 23.054688 -4.929688 18.457031 -8.203125 14.46875 -12.640625 C 10.476562 -17.078125 7.539062 -22.675781 5.65625 -29.4375 C 3.769531 -36.644531 3.796875 -43.6875 5.734375 -50.5625 C 7.679688 -57.4375 11.175781 -63.453125 16.21875 -68.609375 C 21.257812 -73.773438 27.382812 -77.296875 34.59375 -79.171875 C 39.695312 -80.503906 44.660156 -81.003906 49.484375 -80.671875 C 54.304688 -80.335938 58.710938 -79.535156 62.703125 -78.265625 C 66.703125 -76.992188 70.085938 -75.691406 72.859375 -74.359375 C 75.628906 -73.023438 77.457031 -72.082031 78.34375 -71.53125 L 79.015625 -71.53125 L 76.6875 -56.21875 Z M 75.1875 -56.5625 "/></g></g><g style="fill:#000000;fill-opacity:1;"><g transform="translate(515.556883, 308.975927)"><path style="stroke:none" d="M 5.65625 -30.4375 C 3.769531 -37.644531 3.796875 -44.6875 5.734375 -51.5625 C 7.679688 -58.4375 11.148438 -64.453125 16.140625 -69.609375 C 21.128906 -74.765625 27.226562 -78.285156 34.4375 -80.171875 C 41.75 -82.171875 48.84375 -82.195312 55.71875 -80.25 C 62.59375 -78.3125 68.609375 -74.847656 73.765625 -69.859375 C 78.929688 -64.867188 82.457031 -58.71875 84.34375 -51.40625 C 86.332031 -44.195312 86.328125 -37.15625 84.328125 -30.28125 C 82.335938 -23.40625 78.847656 -17.414062 73.859375 -12.3125 C 68.867188 -7.207031 62.769531 -3.65625 55.5625 -1.65625 C 48.351562 0.226562 41.28125 0.226562 34.34375 -1.65625 C 27.414062 -3.539062 21.398438 -7.003906 16.296875 -12.046875 C 11.203125 -17.097656 7.65625 -23.226562 5.65625 -30.4375 Z M 73.03125 -48.40625 C 71.914062 -52.394531 70.191406 -56.46875 67.859375 -60.625 C 65.535156 -64.789062 62.679688 -68.476562 59.296875 -71.6875 C 55.921875 -74.90625 52.148438 -77.234375 47.984375 -78.671875 C 43.828125 -80.117188 39.421875 -80.234375 34.765625 -79.015625 C 30.109375 -77.796875 26.363281 -75.492188 23.53125 -72.109375 C 20.707031 -68.722656 18.628906 -64.8125 17.296875 -60.375 C 15.960938 -55.945312 15.296875 -51.347656 15.296875 -46.578125 C 15.296875 -41.804688 15.851562 -37.425781 16.96875 -33.4375 C 18.070312 -29.445312 19.785156 -25.367188 22.109375 -21.203125 C 24.441406 -17.046875 27.300781 -13.359375 30.6875 -10.140625 C 34.070312 -6.929688 37.84375 -4.578125 42 -3.078125 C 46.15625 -1.578125 50.5625 -1.492188 55.21875 -2.828125 C 59.882812 -4.046875 63.65625 -6.34375 66.53125 -9.71875 C 69.414062 -13.101562 71.492188 -17.015625 72.765625 -21.453125 C 74.046875 -25.890625 74.6875 -30.492188 74.6875 -35.265625 C 74.6875 -40.035156 74.132812 -44.414062 73.03125 -48.40625 Z M 73.03125 -48.40625 "/></g></g><g style="fill:#000000;fill-opacity:1;"><g transform="translate(603.049946, 308.975927)"><path style="stroke:none" d="M 122.265625 -49.234375 L 122.265625 -14.3125 C 122.265625 -8.875 122.789062 -5.378906 123.84375 -3.828125 C 124.894531 -2.273438 125.644531 -1.5 126.09375 -1.5 L 126.09375 0 L 106.796875 0 L 106.796875 -1.5 C 107.347656 -1.5 108.125 -2.273438 109.125 -3.828125 C 110.125 -5.378906 110.625 -8.875 110.625 -14.3125 L 110.625 -49.234375 C 110.625 -51.234375 110.507812 -53.617188 110.28125 -56.390625 C 110.0625 -59.160156 109.59375 -61.957031 108.875 -64.78125 C 108.15625 -67.613281 107.097656 -70.109375 105.703125 -72.265625 C 104.316406 -74.429688 102.460938 -75.90625 100.140625 -76.6875 C 97.035156 -77.789062 94.066406 -77.507812 91.234375 -75.84375 C 88.410156 -74.1875 85.941406 -71.972656 83.828125 -69.203125 C 81.722656 -66.429688 80.0625 -63.769531 78.84375 -61.21875 C 76.40625 -56 74.460938 -49.507812 73.015625 -41.75 C 71.578125 -33.988281 70.859375 -24.84375 70.859375 -14.3125 C 70.859375 -8.875 71.382812 -5.378906 72.4375 -3.828125 C 73.488281 -2.273438 74.238281 -1.5 74.6875 -1.5 L 74.6875 0 L 55.390625 0 L 55.390625 -1.5 C 55.941406 -1.5 56.71875 -2.273438 57.71875 -3.828125 C 58.71875 -5.378906 59.21875 -8.875 59.21875 -14.3125 L 59.21875 -49.234375 C 59.21875 -51.234375 59.101562 -53.617188 58.875 -56.390625 C 58.65625 -59.160156 58.1875 -61.957031 57.46875 -64.78125 C 56.75 -67.613281 55.695312 -70.109375 54.3125 -72.265625 C 52.925781 -74.429688 51.066406 -75.90625 48.734375 -76.6875 C 45.628906 -77.789062 42.660156 -77.507812 39.828125 -75.84375 C 37.003906 -74.1875 34.539062 -71.972656 32.4375 -69.203125 C 30.332031 -66.429688 28.671875 -63.769531 27.453125 -61.21875 C 25.003906 -56 23.0625 -49.507812 21.625 -41.75 C 20.1875 -33.988281 19.46875 -24.84375 19.46875 -14.3125 C 19.46875 -8.875 19.992188 -5.378906 21.046875 -3.828125 C 22.097656 -2.273438 22.84375 -1.5 23.28125 -1.5 L 23.28125 0 L 4.15625 0 L 4.15625 -1.5 C 4.707031 -1.5 5.484375 -2.273438 6.484375 -3.828125 C 7.484375 -5.378906 7.984375 -8.875 7.984375 -14.3125 L 7.984375 -65.875 C 7.984375 -71.300781 7.484375 -74.789062 6.484375 -76.34375 C 5.484375 -77.90625 4.707031 -78.6875 4.15625 -78.6875 L 4.15625 -80.171875 L 19.46875 -80.171875 L 19.46875 -37.09375 C 20.238281 -42.195312 21.175781 -46.800781 22.28125 -50.90625 C 23.394531 -55.007812 24.671875 -58.664062 26.109375 -61.875 C 27.554688 -64.976562 29.359375 -67.972656 31.515625 -70.859375 C 33.679688 -73.742188 36.207031 -76.128906 39.09375 -78.015625 C 41.976562 -79.898438 45.25 -80.84375 48.90625 -80.84375 C 53.445312 -80.84375 57.160156 -79.925781 60.046875 -78.09375 C 62.929688 -76.269531 65.148438 -73.800781 66.703125 -70.6875 C 68.253906 -67.582031 69.332031 -64.171875 69.9375 -60.453125 C 70.550781 -56.742188 70.859375 -53.003906 70.859375 -49.234375 L 70.859375 -37.09375 C 71.523438 -42.195312 72.441406 -46.800781 73.609375 -50.90625 C 74.773438 -55.007812 76.078125 -58.664062 77.515625 -61.875 C 78.953125 -64.976562 80.722656 -67.972656 82.828125 -70.859375 C 84.941406 -73.742188 87.46875 -76.128906 90.40625 -78.015625 C 93.34375 -79.898438 96.644531 -80.84375 100.3125 -80.84375 C 106.40625 -80.84375 111.003906 -79.257812 114.109375 -76.09375 C 117.210938 -72.9375 119.347656 -68.914062 120.515625 -64.03125 C 121.679688 -59.15625 122.265625 -54.222656 122.265625 -49.234375 Z M 122.265625 -49.234375 "/></g></g><g style="fill:#000000;fill-opacity:1;"><g transform="translate(730.796497, 308.975927)"><path style="stroke:none" d="M 5.65625 -29.4375 C 3.769531 -36.644531 3.796875 -43.6875 5.734375 -50.5625 C 7.679688 -57.4375 11.148438 -63.453125 16.140625 -68.609375 C 21.128906 -73.773438 27.226562 -77.296875 34.4375 -79.171875 C 42.082031 -81.285156 49.285156 -81.34375 56.046875 -79.34375 C 62.816406 -77.351562 68.613281 -74.054688 73.4375 -69.453125 C 78.257812 -64.847656 81.5625 -59.609375 83.34375 -53.734375 C 79.34375 -53.734375 75.039062 -53.566406 70.4375 -53.234375 C 65.84375 -52.898438 61.660156 -52.289062 57.890625 -51.40625 C 62.097656 -51.507812 65.78125 -50.5625 68.9375 -48.5625 C 72.101562 -46.570312 74.628906 -43.910156 76.515625 -40.578125 C 78.398438 -37.253906 79.453125 -33.65625 79.671875 -29.78125 C 80.117188 -23.789062 78.898438 -18.601562 76.015625 -14.21875 C 73.128906 -9.84375 69.21875 -6.40625 64.28125 -3.90625 C 59.351562 -1.414062 53.945312 0.0195312 48.0625 0.40625 C 42.1875 0.800781 36.363281 0.00390625 30.59375 -1.984375 C 24.832031 -3.984375 19.734375 -7.226562 15.296875 -11.71875 C 10.867188 -16.21875 7.65625 -22.125 5.65625 -29.4375 Z M 15.46875 -41.421875 C 15.800781 -38.316406 16.300781 -35.320312 16.96875 -32.4375 C 19.1875 -24.445312 22.398438 -18.175781 26.609375 -13.625 C 30.828125 -9.082031 35.484375 -6.007812 40.578125 -4.40625 C 45.679688 -2.800781 50.753906 -2.441406 55.796875 -3.328125 C 60.847656 -4.210938 65.3125 -6.097656 69.1875 -8.984375 C 73.070312 -11.867188 75.847656 -15.554688 77.515625 -20.046875 C 79.179688 -24.535156 79.179688 -29.550781 77.515625 -35.09375 C 76.296875 -39.195312 74.132812 -42.632812 71.03125 -45.40625 C 67.925781 -48.1875 64.097656 -49.769531 59.546875 -50.15625 C 55.003906 -50.539062 49.957031 -49.125 44.40625 -45.90625 C 40.414062 -43.582031 36.507812 -41.945312 32.6875 -41 C 28.863281 -40.0625 25.34375 -39.703125 22.125 -39.921875 C 21.007812 -40.035156 19.867188 -40.203125 18.703125 -40.421875 C 17.546875 -40.640625 16.46875 -40.972656 15.46875 -41.421875 Z M 70.53125 -54.5625 C 68.425781 -59.332031 65.597656 -63.765625 62.046875 -67.859375 C 58.492188 -71.960938 54.414062 -75.039062 49.8125 -77.09375 C 45.21875 -79.144531 40.203125 -79.453125 34.765625 -78.015625 C 29.773438 -76.679688 25.8125 -74.15625 22.875 -70.4375 C 19.9375 -66.726562 17.910156 -62.40625 16.796875 -57.46875 C 15.691406 -52.53125 15.25 -47.625 15.46875 -42.75 C 17.351562 -41.863281 19.570312 -41.3125 22.125 -41.09375 C 25.226562 -40.976562 28.632812 -41.363281 32.34375 -42.25 C 36.0625 -43.132812 39.863281 -44.6875 43.75 -46.90625 C 48.289062 -49.570312 52.945312 -51.457031 57.71875 -52.5625 C 62.488281 -53.675781 66.757812 -54.34375 70.53125 -54.5625 Z M 70.53125 -54.5625 "/></g></g><g style="fill:#000000;fill-opacity:1;"><g transform="translate(818.289697, 308.975927)"><path style="stroke:none" d="M 12.46875 -14.46875 C 14.582031 -14.46875 16.359375 -13.742188 17.796875 -12.296875 C 19.242188 -10.859375 19.96875 -9.144531 19.96875 -7.15625 C 19.96875 -5.15625 19.242188 -3.460938 17.796875 -2.078125 C 16.359375 -0.691406 14.582031 0 12.46875 0 C 10.476562 0 8.734375 -0.691406 7.234375 -2.078125 C 5.734375 -3.460938 4.984375 -5.15625 4.984375 -7.15625 C 4.984375 -9.144531 5.734375 -10.859375 7.234375 -12.296875 C 8.734375 -13.742188 10.476562 -14.46875 12.46875 -14.46875 Z M 12.46875 -14.46875 "/></g></g></g></svg>